<svg width="43" height="43" viewBox="0 0 43 43" fill="none" xmlns="http://www.w3.org/2000/svg">
<path d="M4 6.92497C4 4.00003 4.00002 4 6.92498 4L39.1 4C41.2539 4 43 5.74609 43 7.9V39.1C43 41.2539 41.2539 43 39.1 43H7.9C5.74609 43 4 41.2539 4 39.1V6.92497Z" fill="#20F4CA"/>
<path fill-rule="evenodd" clip-rule="evenodd" d="M36 1.5H4C2.61929 1.5 1.5 2.61929 1.5 4V36C1.5 37.3807 2.61929 38.5 4 38.5H36C37.3807 38.5 38.5 37.3807 38.5 36V4C38.5 2.61929 37.3807 1.5 36 1.5ZM4 0C1.79086 0 0 1.79086 0 4V36C0 38.2091 1.79086 40 4 40H36C38.2091 40 40 38.2091 40 36V4C40 1.79086 38.2091 0 36 0H4Z" fill="#02644F"/>
<path d="M10.6738 22.4453H13.0234V20.6816H10.6738V18.3555H8.85156V20.6816H6.50195V22.4453H8.85156V24.7891H10.6738V22.4453Z" fill="#02644F"/>
<path d="M16.9141 25H19.0645V16.5449H16.9141L14.7637 18.0098V19.8613L16.8027 18.4844H16.9141V25Z" fill="#02644F"/>
<path d="M23.3711 25H25.5215V16.5449H23.3711L21.2207 18.0098V19.8613L23.2598 18.4844H23.3711V25Z" fill="#02644F"/>
<path d="M31.2402 25.2285C33.4316 25.2285 34.791 23.5469 34.791 20.7578C34.791 17.9453 33.4141 16.3164 31.2402 16.3164C29.0605 16.3164 27.6895 17.9512 27.6895 20.752C27.6895 23.5527 29.043 25.2285 31.2402 25.2285ZM31.2402 23.5762C30.4199 23.5762 29.875 22.6211 29.875 20.752C29.875 18.8945 30.4199 17.9688 31.2402 17.9688C32.0605 17.9688 32.6113 18.8945 32.6113 20.752C32.6113 22.6211 32.0605 23.5762 31.2402 23.5762Z" fill="#02644F"/>
</svg>
