<svg width="43" height="43" viewBox="0 0 43 43" fill="none" xmlns="http://www.w3.org/2000/svg">
<path d="M4 6.92497C4 4.00003 4.00002 4 6.92498 4L39.1 4C41.2539 4 43 5.74609 43 7.9V39.1C43 41.2539 41.2539 43 39.1 43H7.9C5.74609 43 4 41.2539 4 39.1V6.92497Z" fill="#20F4CA"/>
<path fill-rule="evenodd" clip-rule="evenodd" d="M36 1.5H4C2.61929 1.5 1.5 2.61929 1.5 4V36C1.5 37.3807 2.61929 38.5 4 38.5H36C37.3807 38.5 38.5 37.3807 38.5 36V4C38.5 2.61929 37.3807 1.5 36 1.5ZM4 0C1.79086 0 0 1.79086 0 4V36C0 38.2091 1.79086 40 4 40H36C38.2091 40 40 38.2091 40 36V4C40 1.79086 38.2091 0 36 0H4Z" fill="#02644F"/>
<path d="M9.93945 22.4746H12.2773V20.6875H9.93945V18.209H8.09961V20.6875H5.76172V22.4746H8.09961V24.9648H9.93945V22.4746ZM13.7068 19.1465V19.1875H15.6755V19.1465C15.6755 18.4492 16.2029 17.9512 16.9295 17.9512C17.6326 17.9512 18.0896 18.3789 18.0896 18.918C18.0896 19.4453 17.8318 19.8555 17.1287 20.5293L13.8298 23.5645V25H20.2752V23.3477H16.6248V23.3066L18.6462 21.4434C19.3259 20.793 20.1697 19.9551 20.1697 18.8477C20.1697 17.3652 18.9216 16.334 16.9998 16.334C15.0252 16.334 13.7068 17.4766 13.7068 19.1465ZM25.0913 25.2109C27.0659 25.2109 28.4722 23.957 28.4722 22.1758C28.4722 20.5703 27.2827 19.3926 25.689 19.3926C24.5933 19.3926 23.8081 19.9492 23.4917 20.7695H23.4507C23.3628 19.041 24.0308 17.9805 25.0913 17.9805C25.6597 17.9805 26.1343 18.2852 26.2749 18.748H28.3667C28.1441 17.3301 26.8023 16.334 25.0972 16.334C22.853 16.334 21.4175 18.0215 21.4175 20.8047C21.4175 22.041 21.7163 23.0957 22.2847 23.8457C22.9058 24.7363 23.9077 25.2109 25.0913 25.2109ZM25.0679 23.5527C24.3237 23.5527 23.7378 22.9785 23.7378 22.2344C23.7378 21.4961 24.3179 20.9336 25.0737 20.9336C25.8296 20.9336 26.4097 21.4961 26.4097 22.2402C26.4097 22.9785 25.8179 23.5527 25.0679 23.5527ZM33.2298 25.2109C35.4387 25.2109 36.804 23.5117 36.804 20.752C36.804 17.9746 35.4212 16.3281 33.2298 16.3281C31.0325 16.3281 29.6438 17.9805 29.6438 20.7578C29.6438 23.5234 31.0149 25.2109 33.2298 25.2109ZM33.2298 23.5352C32.386 23.5352 31.8294 22.5801 31.8294 20.752C31.8294 18.9355 32.3919 18.0039 33.2298 18.0039C34.0677 18.0039 34.6184 18.9297 34.6184 20.7578C34.6184 22.5859 34.0677 23.5352 33.2298 23.5352Z" fill="#02644F"/>
</svg>
