<svg width="158" height="167" viewBox="0 0 158 167" fill="none" xmlns="http://www.w3.org/2000/svg">
    <g clip-path="url(#clip0_2959_4555)">
        <path
            d="M119.152 27.3595C120.973 28.2091 120.872 29.1104 120.475 30.0408C120.978 29.1661 121.569 28.487 123.39 29.3366C121.569 28.487 121.723 27.6425 122.057 26.6504C121.584 27.5606 120.973 28.2091 119.152 27.3595Z"
            fill="#02644F" />
        <path
            d="M78.8873 79.3407C85.0992 74.9792 87.8585 77.0094 90.1575 80.0606C88.2419 76.7653 87.1313 73.5523 93.3432 69.1908C87.1313 73.5523 84.6561 71.4582 82.0376 68.4958C84.1272 71.7575 85.0992 74.9792 78.8873 79.3407Z"
            fill="#20F4CA" />
        <path
            d="M50.0182 32.9161C49.31 25.359 52.4412 23.9692 56.2307 23.4853C52.4192 23.5152 49.0783 22.8868 48.3701 15.3298C49.0783 22.8868 46.0326 23.9983 42.1617 24.8037C46.0303 24.606 49.31 25.359 50.0182 32.9161Z"
            fill="#20F4CA" />
        <path
            d="M109.656 97.0968C117.246 97.0968 118.338 100.344 118.466 104.162C118.792 100.364 119.729 97.0968 127.32 97.0968C119.729 97.0968 118.907 93.9606 118.466 90.0314C118.302 93.9016 117.246 97.0968 109.656 97.0968Z"
            fill="#20F4CA" />
        <path fill-rule="evenodd" clip-rule="evenodd"
            d="M105.435 109.011C105.432 109.334 105.168 109.593 104.845 109.59C99.3952 109.542 94.418 110.117 90.0726 111.027C89.7566 111.093 89.4468 110.89 89.3807 110.574C89.3145 110.258 89.517 109.949 89.833 109.882C94.2564 108.956 99.3174 108.373 104.855 108.421C105.178 108.424 105.437 108.688 105.435 109.011ZM112.43 109.464C112.468 109.143 112.759 108.915 113.08 108.953C117.767 109.518 122.701 110.559 127.804 112.219C128.111 112.319 128.279 112.649 128.179 112.956C128.079 113.263 127.749 113.431 127.442 113.331C122.414 111.695 117.554 110.669 112.94 110.114C112.62 110.075 112.391 109.784 112.43 109.464ZM82.6335 112.458C82.7423 112.762 82.5841 113.097 82.2802 113.206C79.5424 114.186 77.2821 115.255 75.5775 116.264C75.2997 116.429 74.9412 116.337 74.7767 116.059C74.6122 115.781 74.7041 115.422 74.9819 115.258C76.7604 114.205 79.0899 113.106 81.8861 112.105C82.19 111.996 82.5247 112.154 82.6335 112.458ZM134.723 115.454C134.852 115.158 135.197 115.024 135.493 115.154C137.731 116.137 139.992 117.245 142.271 118.488C142.554 118.643 142.659 118.998 142.504 119.281C142.349 119.565 141.994 119.669 141.711 119.515C139.461 118.287 137.23 117.194 135.023 116.224C134.727 116.094 134.593 115.75 134.723 115.454Z"
            fill="#02644F" />
        <path fill-rule="evenodd" clip-rule="evenodd"
            d="M81.0276 -0.035536C81.2863 0.157631 81.3394 0.523925 81.1462 0.782606C80.0333 2.27305 79.1478 3.85907 78.4258 5.6225C78.3035 5.92128 77.9621 6.06431 77.6633 5.94198C77.3645 5.81965 77.2215 5.47828 77.3438 5.17951C78.101 3.33017 79.0341 1.65711 80.2095 0.0830872C80.4026 -0.175593 80.7689 -0.228703 81.0276 -0.035536ZM76.2404 10.804C76.5565 10.8701 76.7591 11.1798 76.693 11.4959C76.0352 14.6427 75.585 18.3133 75.1571 22.7524C75.1261 23.0738 74.8405 23.3092 74.5191 23.2782C74.1978 23.2472 73.9624 22.9616 73.9934 22.6403C74.4221 18.1927 74.877 14.4692 75.5486 11.2566C75.6147 10.9406 75.9244 10.738 76.2404 10.804ZM74.0677 28.3205C74.3894 28.3483 74.6277 28.6315 74.5999 28.9532C74.559 29.4282 74.5175 29.9105 74.4754 30.4004C74.2161 33.417 73.9324 36.7181 73.5896 40.3433C73.5593 40.6647 73.2741 40.9006 72.9527 40.8702C72.6312 40.8398 72.3953 40.5546 72.4257 40.2332C72.768 36.6134 73.0512 33.3177 73.3105 30.301C73.3526 29.8109 73.3941 29.3282 73.4351 28.8527C73.4629 28.5311 73.7461 28.2928 74.0677 28.3205ZM72.4505 45.9226C72.7716 45.9562 73.0047 46.2437 72.9711 46.5648C72.7804 48.3879 72.5734 50.2836 72.3467 52.2559C72.0954 54.4435 71.8092 56.5093 71.494 58.459C71.4425 58.7777 71.1423 58.9943 70.8236 58.9427C70.5049 58.8912 70.2883 58.5911 70.3399 58.2724C70.6521 56.3411 70.9359 54.293 71.1853 52.1224C71.4114 50.1544 71.618 48.2626 71.8083 46.4432C71.8419 46.1221 72.1294 45.889 72.4505 45.9226ZM69.7611 64.4703C70.076 64.5416 70.2734 64.8546 70.2022 65.1695C69.0978 70.0474 67.8061 73.9947 66.4699 77.1472C66.3439 77.4445 66.0008 77.5833 65.7036 77.4573C65.4063 77.3313 65.2675 76.9882 65.3935 76.691C66.6989 73.611 67.9706 69.7312 69.0619 64.9113C69.1332 64.5964 69.4462 64.399 69.7611 64.4703ZM63.0968 82.4349C63.3653 82.6142 63.4375 82.9772 63.2582 83.2457C61.546 85.8086 59.9137 87.2662 58.6629 87.8176C58.3675 87.9478 58.0224 87.8139 57.8922 87.5184C57.762 87.223 57.8959 86.878 58.1913 86.7478C59.1465 86.3268 60.6259 85.0813 62.286 82.5962C62.4653 82.3278 62.8283 82.2555 63.0968 82.4349Z"
            fill="#02644F" />
        <path fill-rule="evenodd" clip-rule="evenodd"
            d="M154.664 72.7471C154.455 72.501 154.086 72.4709 153.84 72.6798C152.422 73.8837 150.895 74.8665 149.18 75.6973C148.889 75.838 148.768 76.1877 148.909 76.4782C149.049 76.7688 149.399 76.8902 149.689 76.7494C151.488 75.8782 153.099 74.8425 154.597 73.5711C154.843 73.3621 154.873 72.9932 154.664 72.7471ZM144.145 78.202C144.059 77.8907 143.737 77.7078 143.426 77.7935C140.327 78.6466 136.691 79.3252 132.287 80.0295C131.969 80.0805 131.752 80.3803 131.803 80.6991C131.854 81.0179 132.153 81.235 132.472 81.184C136.884 80.4783 140.572 79.7917 143.736 78.9207C144.048 78.8351 144.23 78.5133 144.145 78.202ZM126.798 81.4645C126.75 81.1452 126.453 80.9251 126.134 80.9729C125.662 81.0435 125.183 81.115 124.697 81.1876C121.702 81.6348 118.426 82.1241 114.829 82.6926C114.51 82.743 114.292 83.0424 114.343 83.3613C114.393 83.6802 114.692 83.8978 115.011 83.8474C118.603 83.2797 121.874 82.7912 124.869 82.344C125.355 82.2713 125.835 82.1998 126.307 82.1292C126.626 82.0814 126.846 81.7838 126.798 81.4645ZM109.332 84.178C109.278 83.8597 108.976 83.645 108.658 83.6986C106.85 84.0028 104.971 84.3278 103.017 84.6772C100.85 85.0647 98.8055 85.4793 96.8794 85.9157C96.5646 85.987 96.3671 86.3001 96.4385 86.615C96.5098 86.9299 96.8229 87.1273 97.1377 87.0559C99.0457 86.6237 101.072 86.2126 103.223 85.8281C105.173 85.4794 107.048 85.1551 108.852 84.8515C109.17 84.7979 109.385 84.4964 109.332 84.178ZM90.9881 88.0207C90.8973 87.7109 90.5725 87.5334 90.2627 87.6242C85.4633 89.0311 81.6044 90.5668 78.5415 92.0973C78.2527 92.2416 78.1355 92.5927 78.2798 92.8815C78.4242 93.1703 78.7753 93.2874 79.0641 93.1431C82.0564 91.6479 85.8493 90.1362 90.5916 88.7461C90.9014 88.6553 91.0789 88.3305 90.9881 88.0207ZM73.4748 95.794C73.2791 95.5373 72.9122 95.4879 72.6555 95.6836C70.2045 97.5525 68.8517 99.2727 68.3796 100.556C68.2681 100.858 68.4233 101.194 68.7262 101.306C69.0292 101.418 69.3652 101.262 69.4767 100.959C69.8373 99.9797 70.9878 98.4254 73.3644 96.6133C73.6211 96.4176 73.6706 96.0508 73.4748 95.794Z"
            fill="#02644F" />
        <path fill-rule="evenodd" clip-rule="evenodd"
            d="M26.954 13.83C27.2339 13.6692 27.5912 13.7659 27.752 14.0458C29.0461 16.2997 30.2291 18.5252 31.3088 20.7183C31.4513 21.0079 31.3321 21.3583 31.0425 21.5009C30.7528 21.6435 30.4024 21.5243 30.2598 21.2346C29.1913 19.064 28.0199 16.8605 26.7381 14.628C26.5773 14.348 26.674 13.9907 26.954 13.83ZM33.9101 27.9143C34.2096 27.7939 34.5501 27.939 34.6705 28.2386C36.6932 33.2693 38.18 38.0894 39.2352 42.6453C39.3081 42.9598 39.1122 43.2738 38.7976 43.3466C38.4831 43.4195 38.1691 43.2236 38.0962 42.9091C37.0546 38.412 35.586 33.6494 33.5858 28.6747C33.4654 28.3752 33.6106 28.0347 33.9101 27.9143ZM40.0632 50.2621C40.3833 50.2193 40.6773 50.4441 40.7201 50.7641C41.4695 56.3737 41.5666 61.4543 41.2587 65.8782C41.2363 66.2003 40.9571 66.4432 40.635 66.4208C40.3129 66.3984 40.07 66.1191 40.0924 65.797C40.3949 61.4515 40.3002 56.45 39.5612 50.9189C39.5185 50.5989 39.7432 50.3048 40.0632 50.2621ZM39.6722 73.3827C39.9877 73.4512 40.1879 73.7625 40.1194 74.078C39.4676 77.0796 38.6369 79.5294 37.7847 81.3384C37.6471 81.6305 37.2988 81.7557 37.0068 81.6181C36.7147 81.4806 36.5895 81.1323 36.7271 80.8402C37.5341 79.1271 38.3397 76.7644 38.9769 73.8299C39.0454 73.5144 39.3567 73.3142 39.6722 73.3827Z"
            fill="#02644F" />
        <path
            d="M13.7987 165.31L67.1751 138.176C69.1463 137.174 70.6351 135.319 70.6336 133.108C70.623 116.908 49.6893 98.6596 33.6098 100.894C31.4515 101.193 29.8299 102.879 29.086 104.927L8.7571 160.894C7.67585 163.966 10.8952 166.786 13.7987 165.31Z"
            fill="#20F4CA" />
        <path fill-rule="evenodd" clip-rule="evenodd"
            d="M31.5209 95.198C29.6837 95.3191 28.2767 95.9146 27.3536 96.9596C26.4306 98.0045 26.0133 99.4742 26.1198 101.312C26.2265 103.154 26.8588 105.322 27.9827 107.683C30.2293 112.403 34.3898 117.789 39.9459 122.697C45.502 127.605 51.3602 131.069 56.3214 132.716C58.8032 133.54 61.0325 133.9 62.8732 133.778C64.7104 133.657 66.1174 133.061 67.0405 132.017C67.9635 130.972 68.3808 129.502 68.2743 127.664C68.1676 125.822 67.5353 123.654 66.4114 121.293C64.1648 116.573 60.0043 111.187 54.4482 106.279C48.8921 101.371 43.0339 97.9074 38.0727 96.2604C35.5909 95.4365 33.3616 95.0766 31.5209 95.198ZM38.441 95.1508C43.5847 96.8584 49.5771 100.416 55.2222 105.403C60.8673 110.39 65.1378 115.897 67.4671 120.791C68.6312 123.236 69.3232 125.556 69.4415 127.596C69.5599 129.64 69.1029 131.448 67.9167 132.791C67.3836 133.394 66.7391 133.863 66.0056 134.209L10.4543 162.22C7.08074 163.935 3.34014 160.658 4.59646 157.088L25.2198 98.4864C25.2318 98.4522 25.2467 98.4199 25.2641 98.3895C25.515 97.5663 25.9139 96.8235 26.4774 96.1856C27.6636 94.8427 29.401 94.1661 31.444 94.0314C33.4836 93.8969 35.8703 94.2974 38.441 95.1508ZM25.0634 102.453L20.0886 116.589C20.1111 116.624 20.13 116.663 20.1448 116.704C21.9233 121.657 24.6454 127.122 29.814 131.981C35.1638 137.009 42.8265 140.613 47.9637 141.997L48.412 141.815L61.9036 134.968C60.1109 134.933 58.0959 134.537 55.9531 133.825C50.8094 132.118 44.817 128.56 39.1719 123.573C33.5268 118.587 29.2563 113.079 26.927 108.185C25.9623 106.159 25.3219 104.219 25.0634 102.453ZM46.3845 142.793C41.1374 141.286 34.3477 137.847 29.0133 132.833C24.0828 128.198 21.3139 123.035 19.4886 118.294L14.7496 131.76C15.9445 135.283 17.8025 139.14 21.4024 142.524C25.1112 146.01 29.919 148.333 33.5592 149.26L46.3845 142.793ZM32.021 150.036C28.4108 148.896 24.0573 146.624 20.6016 143.376C17.2845 140.258 15.3838 136.763 14.1356 133.504L9.45175 146.814C10.1008 148.697 11.1011 150.733 13.0037 152.521C15.0245 154.421 17.6547 155.682 19.6192 156.172C19.6666 156.183 19.7111 156.201 19.7523 156.222L32.021 150.036ZM18.2459 156.982C16.2985 156.316 14.0282 155.089 12.203 153.373C10.5673 151.836 9.54815 150.136 8.85337 148.514L5.69929 157.477C4.79311 160.051 7.49119 162.415 9.92454 161.178L18.2459 156.982Z"
            fill="#02644F" />
        <path
            d="M59.395 38.4703C60.4991 40.1494 59.9395 40.8632 59.1135 41.447C60.001 40.9667 60.8603 40.6987 61.9643 42.3778C60.8603 40.6987 61.4344 40.0606 62.2395 39.3916C61.3595 39.9182 60.4991 40.1494 59.395 38.4703Z"
            fill="#02644F" />
        <path
            d="M87.5195 128.254C87.9647 128.004 88.5071 127.628 89.0811 127.229C89.4933 126.943 89.9219 126.646 90.3424 126.376L93.4521 124.258C93.9011 123.788 95.948 122.6 96.8256 122.162C97.0524 122.049 97.1986 121.978 97.298 121.932C98.0326 121.498 98.9047 121.282 99.8192 121.362C102.15 121.567 103.873 123.622 103.668 125.953C103.53 127.521 102.555 128.814 101.221 129.43L101.234 129.46L101.216 129.487C102.422 130.326 103.156 131.769 103.019 133.337C102.814 135.668 100.758 137.391 98.4279 137.186C97.5134 137.106 96.6924 136.741 96.0448 136.185C95.9549 136.123 95.8235 136.027 95.62 135.876C94.8322 135.293 93.0239 133.766 92.6639 133.225L89.9714 130.596C89.6046 130.257 89.2345 129.889 88.8785 129.536C88.3827 129.044 87.9142 128.578 87.5195 128.254Z"
            fill="#20F4CA" />
        <path
            d="M141.882 97.4643C141.91 97.3677 141.933 97.24 141.958 97.105C141.976 97.008 141.995 96.9072 142.016 96.8112L142.157 96.0849C142.155 95.9572 142.276 95.5079 142.338 95.3253C142.354 95.2782 142.364 95.248 142.372 95.2278C142.414 95.0655 142.506 94.9146 142.645 94.7992C142.998 94.505 143.524 94.5533 143.818 94.907C144.016 95.1449 144.058 95.4605 143.958 95.7311L143.964 95.7335L143.965 95.7397C144.249 95.6899 144.552 95.7896 144.75 96.0276C145.044 96.3812 144.995 96.9063 144.642 97.2005C144.503 97.3159 144.338 97.3786 144.171 97.3908C144.149 97.3945 144.118 97.3993 144.069 97.4065C143.878 97.4341 143.414 97.4713 143.289 97.4457L142.549 97.4516C142.451 97.455 142.348 97.455 142.25 97.455C142.112 97.4549 141.982 97.4549 141.882 97.4643Z"
            fill="#02644F" />
        <path
            d="M28.07 75.3137C27.9914 75.2513 27.8826 75.1805 27.7674 75.1057C27.6847 75.0519 27.5988 74.9959 27.5184 74.9395L26.9016 74.5309C26.7827 74.4841 26.4144 74.1998 26.2695 74.0725C26.2321 74.0397 26.2083 74.0183 26.1925 74.0037C26.059 73.9022 25.9548 73.7595 25.9014 73.5871C25.7655 73.1477 26.0116 72.6812 26.451 72.5453C26.7467 72.4539 27.0546 72.5354 27.2658 72.7323L27.2703 72.7278L27.2765 72.729C27.3397 72.4472 27.5478 72.2062 27.8435 72.1148C28.2829 71.9789 28.7493 72.2249 28.8852 72.6644C28.9385 72.8368 28.933 73.0134 28.8801 73.1725C28.8754 73.1935 28.8678 73.2246 28.8554 73.2728C28.8077 73.4596 28.6642 73.9022 28.5924 74.008L28.3141 74.6934C28.2796 74.7854 28.2402 74.8801 28.2023 74.9711C28.1496 75.0979 28.0997 75.2178 28.07 75.3137Z"
            fill="#02644F" />
        <path
            d="M78.6579 61.0734C78.6863 60.9771 78.7112 60.8497 78.7375 60.7149C78.7564 60.6181 78.7761 60.5175 78.7983 60.4218L78.9463 59.6969C78.9451 59.5691 79.0708 59.1211 79.1346 58.9391C79.1511 58.8921 79.1619 58.862 79.1696 58.8419C79.2137 58.6801 79.307 58.5301 79.4469 58.4161C79.8035 58.1255 80.3281 58.179 80.6186 58.5356C80.8141 58.7755 80.8539 59.0915 80.7503 59.3611L80.7562 59.3636L80.7574 59.3698C81.0424 59.3229 81.3438 59.4256 81.5393 59.6655C81.8298 60.0221 81.7763 60.5467 81.4197 60.8372C81.2798 60.9513 81.114 61.0123 80.9467 61.0228C80.9254 61.0263 80.8938 61.0308 80.8444 61.0375C80.6534 61.0632 80.1892 61.0958 80.0643 61.0689L79.3245 61.0674C79.2262 61.0699 79.1237 61.0688 79.0251 61.0678C78.8877 61.0664 78.7579 61.065 78.6579 61.0734Z"
            fill="#02644F" />
        <path
            d="M92.2906 46.6527C92.2664 46.1426 92.1732 45.489 92.0746 44.7975C92.0038 44.3008 91.9302 43.7844 91.8774 43.2875L91.3777 39.558C91.1588 38.946 91.0145 36.5837 91.017 35.6031C91.0176 35.3497 91.0194 35.1871 91.0229 35.0776C90.9646 34.2266 91.1621 33.35 91.6439 32.5686C92.8718 30.5772 95.4815 29.9583 97.4729 31.1862C98.8128 32.0124 99.5313 33.4642 99.484 34.9323L99.5164 34.9342L99.5327 34.9622C100.823 34.2608 102.443 34.251 103.783 35.0771C105.774 36.305 106.393 38.9147 105.165 40.9061C104.683 41.6875 103.989 42.2576 103.202 42.5877C103.106 42.6399 102.961 42.7146 102.735 42.8288C101.86 43.2714 99.685 44.2033 99.0398 44.2825L95.4831 45.5108C95.0154 45.6867 94.521 45.8528 94.0455 46.0125C93.3833 46.235 92.7574 46.4453 92.2906 46.6527Z"
            fill="#20F4CA" />
        <path
            d="M128.202 62.8456L134.262 60.1677C132.72 59.5709 130.904 57.3908 130.233 56.8354C135.215 58.4682 137.842 50.9161 131.791 49.7558C128.151 49.2338 128.113 49.6767 124.283 45.8305C124.549 51.252 123.944 51.0062 122.167 54.0091C118.752 59.779 127.017 62.0914 128.451 57.623C128.409 58.4935 128.799 61.3037 128.202 62.8456Z"
            fill="#20F4CA" />
        <path
            d="M107.5 60.7531L108.746 59.9082C108.675 60.2773 108.876 60.8898 108.902 61.0862C109.188 59.9294 110.96 60.3332 110.454 61.6391C110.116 62.4033 110.026 62.3573 110.306 63.5588C109.293 62.8543 109.268 63.0004 108.475 62.981C106.952 62.9437 107.502 61.0725 108.536 61.3347C108.363 61.2377 107.869 60.824 107.5 60.7531Z"
            fill="#02644F" />
        <path
            d="M99.3033 13.882L99.5477 12.3963C99.7668 12.7016 100.35 12.977 100.51 13.0932C99.8674 12.0898 101.38 11.0819 101.979 12.3474C102.301 13.1185 102.206 13.152 103.27 13.7759C102.062 14.026 102.151 14.1451 101.591 14.7071C100.516 15.7869 99.5368 14.0999 100.438 13.5301C100.249 13.5888 99.6087 13.6629 99.3033 13.882Z"
            fill="#02644F" />
        <path
            d="M118.512 123.76L117.931 122.371C118.279 122.514 118.919 122.438 119.117 122.452C118.04 121.942 118.788 120.285 119.967 121.04C120.649 121.523 120.586 121.602 121.819 121.567C120.927 122.42 121.066 122.474 120.889 123.247C120.55 124.732 118.825 123.821 119.288 122.86C119.158 123.01 118.654 123.413 118.512 123.76Z"
            fill="#02644F" />
        <path
            d="M54.7098 69.758C54.7098 71.036 54.8398 72.0962 53.1511 73.2653H55.8245H58.5006C56.9417 72.1027 56.9417 70.9784 56.9417 69.758C64.346 72.8756 65.1254 62.7432 59.2799 62.7432C61.2284 59.6255 58.9422 56.1182 55.8245 56.1182C52.7069 56.1182 50.4231 59.6255 52.3718 62.7432C46.1365 62.7432 46.9158 72.8756 54.7098 69.758Z"
            fill="#20F4CA" />
        <path
            d="M64.3639 7.4235C64.263 7.63282 64.2005 7.81673 63.8317 7.87489L64.2695 8.08595L64.7078 8.29723C64.5443 7.98373 64.633 7.79958 64.7294 7.59971C65.696 8.6949 66.6236 7.09692 65.6662 6.63542C66.2314 6.27863 66.1339 5.52369 65.6233 5.27754C65.1127 5.0314 64.4617 5.42555 64.5347 6.09002C63.5135 5.59774 62.8412 7.31878 64.3639 7.4235Z"
            fill="#02644F" />
        <path
            d="M143.01 64.4354C142.824 64.2967 142.655 64.2007 142.668 63.8274L142.378 64.2175L142.087 64.6079C142.426 64.5066 142.59 64.6286 142.768 64.761C141.51 65.503 142.904 66.7161 143.538 65.8633C143.781 66.4858 144.541 66.5328 144.879 66.078C145.218 65.6231 144.954 64.9094 144.287 64.8554C144.964 63.9457 143.401 62.96 143.01 64.4354Z"
            fill="#02644F" />
        <path
            d="M91.3264 99.8628C91.0977 99.8215 90.9038 99.8106 90.7491 99.4707L90.6629 99.9491L90.5765 100.428C90.8349 100.186 91.036 100.223 91.2544 100.262C90.4577 101.486 92.2456 101.953 92.4342 100.907C92.9292 101.356 93.6305 101.06 93.7311 100.502C93.8316 99.9444 93.2777 99.4226 92.657 99.6707C92.8582 98.555 91.02 98.3676 91.3264 99.8628Z"
            fill="#02644F" />
    </g>
    <defs>
        <clipPath id="clip0_2959_4555">
            <rect width="157.04" height="166.072" fill="white" transform="translate(0.480469)" />
        </clipPath>
    </defs>
</svg>