<svg width="16" height="16" viewBox="0 0 16 16" fill="none" xmlns="http://www.w3.org/2000/svg">
<g clip-path="url(#clip0_3019_45625)">
<path d="M13.0001 16H10.5001C10.3675 16 10.2403 15.9473 10.1466 15.8535C10.0528 15.7598 10.0001 15.6326 10.0001 15.5V10.5C10.0001 10.3674 9.94745 10.2402 9.85368 10.1464C9.75992 10.0527 9.63274 9.99999 9.50013 9.99999H6.50013C6.36752 9.99999 6.24035 10.0527 6.14658 10.1464C6.05281 10.2402 6.00013 10.3674 6.00013 10.5V15.5C6.00013 15.6326 5.94745 15.7598 5.85368 15.8535C5.75992 15.9473 5.63274 16 5.50013 16H3.00013C2.73491 16 2.48056 15.8946 2.29302 15.7071C2.10549 15.5196 2.00013 15.2652 2.00013 15V8.99999H1.04713C0.840904 9.0032 0.638381 8.94501 0.465305 8.83283C0.292228 8.72065 0.156416 8.55955 0.07513 8.36999C0.000498191 8.1926 -0.0190983 7.99688 0.0188833 7.80822C0.0568649 7.61956 0.150671 7.44667 0.28813 7.31199L7.29313 0.299989C7.48066 0.112518 7.73497 0.00720215 8.00013 0.00720215C8.26529 0.00720215 8.5196 0.112518 8.70713 0.299989L15.7111 7.30999C15.8492 7.44472 15.9434 7.61791 15.9816 7.80699C16.0198 7.99607 16.0001 8.19226 15.9251 8.36999C15.8438 8.55955 15.708 8.72065 15.535 8.83283C15.3619 8.94501 15.1594 9.0032 14.9531 8.99999H14.0001V15C14.0001 15.2652 13.8948 15.5196 13.7072 15.7071C13.5197 15.8946 13.2653 16 13.0001 16Z" fill="#6C6E6F"/>
</g>
<defs>
<clipPath id="clip0_3019_45625">
<rect width="16" height="16" fill="white"/>
</clipPath>
</defs>
</svg>
