<svg width="24" height="24" viewBox="0 0 24 24" fill="none" xmlns="http://www.w3.org/2000/svg">
<rect width="24" height="24" rx="12" fill="#00122A"/>
<g clip-path="url(#clip0_3019_45623)">
<path d="M15.6864 6.18408H7.16627L5.75977 17.7919C5.75977 17.7919 12.7923 17.7942 14.0968 17.7923C14.3391 17.7923 14.5809 17.7755 14.8205 17.739C15.5151 17.6324 16.667 17.2949 17.153 16.1506C17.3694 15.6409 17.5351 14.2214 17.5903 13.8383C17.7246 12.9063 17.2259 12.367 16.7294 12.0545C16.6196 11.9857 16.6479 11.8199 16.7731 11.7875C17.2965 11.6527 17.7893 11.3744 17.9241 10.7804C18.0184 10.3636 18.1104 9.44658 18.1751 8.93685C18.4698 6.79677 17.0328 6.18408 15.6864 6.18408ZM14.7035 12.7583H11.1212L11.0305 13.4949H14.6142L14.4033 15.2036H8.68027L9.16444 11.266H14.8866L14.7035 12.7583ZM14.9717 10.5781H9.24824L9.46961 8.77377H15.1926L14.9717 10.5781Z" fill="#20F4CA"/>
</g>
<defs>
<clipPath id="clip0_3019_45623">
<rect width="12.48" height="11.616" fill="white" transform="translate(5.75977 6.18408)"/>
</clipPath>
</defs>
</svg>
