<svg width="20" height="20" viewBox="0 0 20 20" fill="none" xmlns="http://www.w3.org/2000/svg">
<path d="M6.75 5.97222V12.4167C6.75 12.844 6.92121 13.2538 7.22595 13.5559C7.5307 13.858 7.94402 14.0278 8.375 14.0278H13.25M6.75 5.97222V4.36111C6.75 3.93382 6.92121 3.52403 7.22595 3.22188C7.5307 2.91974 7.94402 2.75 8.375 2.75H12.1011C12.3166 2.75005 12.5232 2.83495 12.6756 2.98603L16.2619 6.54175C16.4143 6.69279 16.5 6.89765 16.5 7.11128V12.4167C16.5 12.844 16.3288 13.2538 16.024 13.5559C15.7193 13.858 15.306 14.0278 14.875 14.0278H13.25M6.75 5.97222H5.125C4.69402 5.97222 4.2807 6.14196 3.97595 6.44411C3.6712 6.74625 3.5 7.15604 3.5 7.58333V15.6389C3.5 16.0662 3.6712 16.476 3.97595 16.7781C4.2807 17.0803 4.69402 17.25 5.125 17.25H11.625C12.056 17.25 12.4693 17.0803 12.774 16.7781C13.0788 16.476 13.25 16.0662 13.25 15.6389V14.0278" stroke="#058569" stroke-width="1.25" stroke-linecap="round" stroke-linejoin="round"/>
</svg>
