<svg width="20" height="20" viewBox="0 0 20 20" fill="none" xmlns="http://www.w3.org/2000/svg">
    <path
        d="M8.3335 9.16667V14.1667M11.6668 9.16667V14.1667M3.3335 5.83333H16.6668M15.8335 5.83333L15.111 15.9517C15.0811 16.3722 14.8929 16.7657 14.5844 17.053C14.2759 17.3403 13.87 17.5 13.4485 17.5H6.55183C6.13028 17.5 5.72439 17.3403 5.4159 17.053C5.10742 16.7657 4.91926 16.3722 4.88933 15.9517L4.16683 5.83333H15.8335ZM12.5002 5.83333V3.33333C12.5002 3.11232 12.4124 2.90036 12.2561 2.74408C12.0998 2.5878 11.8878 2.5 11.6668 2.5H8.3335C8.11248 2.5 7.90052 2.5878 7.74424 2.74408C7.58796 2.90036 7.50016 3.11232 7.50016 3.33333V5.83333H12.5002Z"
        stroke="#71717A" stroke-width="1.5" stroke-linecap="round" stroke-linejoin="round" />
</svg>