<svg width="20" height="20" viewBox="0 0 20 20" fill="none" xmlns="http://www.w3.org/2000/svg">
    <path
        d="M9.16683 4.16667H5.00016C4.55814 4.16667 4.13421 4.34226 3.82165 4.65482C3.50909 4.96739 3.3335 5.39131 3.3335 5.83334V15C3.3335 15.442 3.50909 15.866 3.82165 16.1785C4.13421 16.4911 4.55814 16.6667 5.00016 16.6667H14.1668C14.6089 16.6667 15.0328 16.4911 15.3453 16.1785C15.6579 15.866 15.8335 15.442 15.8335 15V10.8333M14.6552 2.98834C14.8089 2.82915 14.9928 2.70218 15.1962 2.61483C15.3995 2.52749 15.6182 2.48151 15.8395 2.47959C16.0608 2.47766 16.2803 2.51983 16.4851 2.60363C16.6899 2.68744 16.876 2.81119 17.0325 2.96768C17.189 3.12417 17.3127 3.31025 17.3965 3.51508C17.4803 3.71991 17.5225 3.93937 17.5206 4.16067C17.5187 4.38197 17.4727 4.60067 17.3853 4.80401C17.298 5.00735 17.171 5.19126 17.0118 5.345L9.85683 12.5H7.50016V10.1433L14.6552 2.98834Z"
        stroke="#058569" stroke-width="1.5" stroke-linecap="round" stroke-linejoin="round" />
</svg>