<svg width="1160" height="190" viewBox="0 0 1160 190" fill="none" xmlns="http://www.w3.org/2000/svg">
<path fill-rule="evenodd" clip-rule="evenodd" d="M521.578 106.261C522.273 108.686 527.703 109.182 533.705 107.37C539.708 105.558 544.01 102.124 543.315 99.6995C542.62 97.2753 537.19 96.7791 531.188 98.5909C525.185 100.403 520.882 103.837 521.578 106.261Z" fill="#0275C9"/>
<path fill-rule="evenodd" clip-rule="evenodd" d="M521.669 106.581L523.367 112.269C523.456 112.566 523.674 112.807 523.969 112.903C530.05 114.877 540.79 111.503 544.724 106.611C544.91 106.379 544.965 106.073 544.891 105.785L543.407 100.02" fill="#0275C9"/>
<path d="M518.165 104.342L519.863 110.03C519.952 110.327 520.17 110.568 520.465 110.664C526.546 112.637 537.287 109.263 541.22 104.372C541.406 104.14 541.461 103.834 541.387 103.546L539.903 97.7803M518.074 104.022C518.769 106.446 524.199 106.943 530.201 105.131C536.204 103.319 540.507 99.8846 539.811 97.4603C539.116 95.036 533.686 94.5398 527.684 96.3517C521.681 98.1638 517.379 101.598 518.074 104.022Z" stroke="#121213" stroke-width="1.5" stroke-linecap="round"/>
<path fill-rule="evenodd" clip-rule="evenodd" d="M586.048 148.5C601.52 152.325 612.021 144.192 613.061 140.592C614.106 136.992 609.5 124.288 594.033 120.458C578.557 116.628 567.749 125.296 566.704 128.896C565.668 132.491 570.576 144.67 586.048 148.5Z" fill="#0275C9"/>
<path fill-rule="evenodd" clip-rule="evenodd" d="M590.799 130.31C590.87 129.922 591.239 129.664 591.627 129.729C592.024 129.797 592.29 130.176 592.218 130.572L590.686 138.991C590.615 139.379 590.246 139.637 589.858 139.571C589.461 139.504 589.195 139.125 589.267 138.729L590.799 130.31Z" fill="#121213"/>
<path fill-rule="evenodd" clip-rule="evenodd" d="M584.437 129.311C584.507 128.923 584.876 128.664 585.265 128.73C585.662 128.797 585.928 129.176 585.856 129.573L584.323 137.991C584.253 138.379 583.884 138.638 583.495 138.572C583.098 138.505 582.832 138.125 582.905 137.729L584.437 129.311Z" fill="#121213"/>
<path fill-rule="evenodd" clip-rule="evenodd" d="M578.074 128.216C578.145 127.828 578.513 127.569 578.902 127.635C579.299 127.702 579.565 128.082 579.493 128.478L577.961 136.897C577.89 137.284 577.521 137.543 577.133 137.477C576.736 137.41 576.47 137.031 576.542 136.635L578.074 128.216Z" fill="#121213"/>
<path d="M580.413 147.5C596.229 151.325 606.964 143.192 608.027 139.592C609.095 135.992 604.387 123.288 588.576 119.458C572.756 115.628 561.707 124.296 560.639 127.896C559.581 131.491 564.598 143.67 580.413 147.5" stroke="#121213" stroke-width="1.5"/>
<path fill-rule="evenodd" clip-rule="evenodd" d="M629.729 124.968C636.592 124.737 641.962 119.181 641.722 112.558C641.482 105.935 635.724 100.753 628.861 100.984C621.997 101.216 616.628 106.772 616.867 113.395C617.107 120.018 622.865 125.2 629.729 124.968Z" fill="#0275C9"/>
<path d="M613.504 109C613.504 109 624.499 111.015 621.312 122.977M637.585 113.977C637.585 113.977 626.837 111.938 630.024 99.9771M625.584 122.969C632.447 122.737 637.817 117.181 637.577 110.558C637.338 103.935 631.579 98.7532 624.716 98.9845C617.853 99.2158 612.483 104.772 612.723 111.395C612.962 118.018 618.72 123.2 625.584 122.969Z" stroke="#121213" stroke-width="1.5"/>
<path fill-rule="evenodd" clip-rule="evenodd" d="M579.274 103.822C595.299 103.822 608.289 90.8391 608.289 74.8237C608.289 58.8082 595.299 45.8252 579.274 45.8252C563.25 45.8252 550.259 58.8082 550.259 74.8237C550.259 90.8391 563.25 103.822 579.274 103.822Z" fill="#0275C9"/>
<path d="M567.321 99.9753L583.76 42.4946M545.49 64.4988L605.592 77.8624M560.133 45.5C560.133 45.5 569.674 76.713 548.599 84.4979M600.411 54.3257C600.411 54.3257 579.402 70.9035 591.158 96.4977M575.541 101.497C592.138 101.497 605.592 88.0661 605.592 71.4984C605.592 54.9307 592.138 41.5 575.541 41.5C558.945 41.5 545.49 54.9307 545.49 71.4984C545.49 88.0661 558.945 101.497 575.541 101.497Z" stroke="#121213" stroke-width="1.5"/>
</svg>
