<svg width="20" height="20" viewBox="0 0 20 20" fill="none" xmlns="http://www.w3.org/2000/svg">
<g clip-path="url(#clip0_3071_4767)">
<path fill-rule="evenodd" clip-rule="evenodd" d="M4.625 5.24512C3.86561 5.24512 3.25 5.86073 3.25 6.62012V15.375C3.25 16.1344 3.86561 16.75 4.625 16.75H13.3799C14.1393 16.75 14.7549 16.1344 14.7549 15.375V10.6332C14.7549 10.288 15.0347 10.0082 15.3799 10.0082C15.7251 10.0082 16.0049 10.288 16.0049 10.6332V15.375C16.0049 16.8247 14.8296 18 13.3799 18H4.625C3.17525 18 2 16.8247 2 15.375V6.62012C2 5.17037 3.17525 3.99512 4.625 3.99512H9.375C9.72018 3.99512 10 4.27494 10 4.62012C10 4.9653 9.72018 5.24512 9.375 5.24512H4.625Z" fill="#058569"/>
<path fill-rule="evenodd" clip-rule="evenodd" d="M9.18135 9.93465L16.5266 2.58936L17.4105 3.47324L10.0652 10.8185C9.82116 11.0626 9.42543 11.0626 9.18135 10.8185C8.93727 10.5745 8.93727 10.1787 9.18135 9.93465Z" fill="#058569"/>
<path fill-rule="evenodd" clip-rule="evenodd" d="M11 2.62012C11 2.27494 11.2798 1.99512 11.625 1.99512H17.3799C17.7251 1.99512 18.0049 2.27494 18.0049 2.62012V8.36902C18.0049 8.7142 17.7251 8.99402 17.3799 8.99402C17.0347 8.99402 16.7549 8.7142 16.7549 8.36902V3.24512H11.625C11.2798 3.24512 11 2.9653 11 2.62012Z" fill="#058569"/>
</g>
<defs>
<clipPath id="clip0_3071_4767">
<rect width="20" height="20" fill="white"/>
</clipPath>
</defs>
</svg>
